<svg xmlns="http://www.w3.org/2000/svg" viewBox="0 0 24.27 31.4"><defs><style>.cls-1{fill:#fff;}</style></defs><title>calculator-icon</title><g id="Layer_2" data-name="Layer 2"><g id="TEXT"><g id="Layer_1-2" data-name="Layer 1"><path class="cls-1" d="M22.84,0H1.43A1.43,1.43,0,0,0,0,1.43V30A1.43,1.43,0,0,0,1.43,31.4H22.84A1.43,1.43,0,0,0,24.27,30V1.43A1.43,1.43,0,0,0,22.84,0ZM21.41,2.85V7.14H2.85V2.85ZM2.85,28.55V10H21.41V28.55Z"/><path class="cls-1" d="M8,11.25H5a.71.71,0,0,0-.71.72v3a.71.71,0,0,0,.71.72H8a.71.71,0,0,0,.71-.72V12A.71.71,0,0,0,8,11.25Z"/><path class="cls-1" d="M13.61,11.25h-3a.71.71,0,0,0-.71.72v3a.71.71,0,0,0,.71.72h3a.72.72,0,0,0,.72-.72V12A.72.72,0,0,0,13.61,11.25Z"/><path class="cls-1" d="M19.27,11.25h-3a.72.72,0,0,0-.72.72v3a.72.72,0,0,0,.72.72h3a.71.71,0,0,0,.71-.72V12A.71.71,0,0,0,19.27,11.25Z"/><path class="cls-1" d="M8,17.07H5a.71.71,0,0,0-.71.72v3a.71.71,0,0,0,.71.72H8a.71.71,0,0,0,.71-.72v-3A.71.71,0,0,0,8,17.07Z"/><path class="cls-1" d="M13.61,17.07h-3a.71.71,0,0,0-.71.72v3a.71.71,0,0,0,.71.72h3a.72.72,0,0,0,.72-.72v-3A.72.72,0,0,0,13.61,17.07Z"/><path class="cls-1" d="M8,22.89H5a.71.71,0,0,0-.71.72v3a.71.71,0,0,0,.71.72H8a.71.71,0,0,0,.71-.72v-3A.71.71,0,0,0,8,22.89Z"/><path class="cls-1" d="M13.61,22.89h-3a.71.71,0,0,0-.71.72v3a.71.71,0,0,0,.71.72h3a.72.72,0,0,0,.72-.72v-3A.72.72,0,0,0,13.61,22.89Z"/><path class="cls-1" d="M19.27,17.07h-3a.72.72,0,0,0-.72.72v8.78a.72.72,0,0,0,.72.72h3a.71.71,0,0,0,.71-.72V17.79A.71.71,0,0,0,19.27,17.07Z"/></g></g></g></svg>