<svg xmlns="http://www.w3.org/2000/svg" viewBox="0 0 22.91 28.91"><defs><style>.cls-1{fill:#4d4d4d;}</style></defs><title>cellphone-icon</title><g id="Layer_2" data-name="Layer 2"><g id="Layer_1-2" data-name="Layer 1"><path class="cls-1" d="M11.9.13,1.1,4.55a1.78,1.78,0,0,0-1,2.31l8.57,21a1.79,1.79,0,0,0,2.31,1l10.8-4.42a1.78,1.78,0,0,0,1-2.31L14.2,1.1A1.76,1.76,0,0,0,11.9.13ZM5.25,4.23,8.71,2.81A.22.22,0,0,1,9,2.93a.22.22,0,0,1-.12.28L5.42,4.62a.21.21,0,0,1-.17-.39ZM16.08,25.75a.89.89,0,1,1,.48-1.15A.89.89,0,0,1,16.08,25.75Zm5-4.62L9.27,26,1.66,7.35l11.8-4.83Z"/></g></g></svg>