<svg xmlns="http://www.w3.org/2000/svg" viewBox="0 0 66.46 85"><defs><style>.cls-1{fill:#fff;}</style></defs><title>certificate-icon</title><g id="Layer_2" data-name="Layer 2"><g id="Layer_1-2" data-name="Layer 1"><path class="cls-1" d="M56,25.74a1.43,1.43,0,1,0,0-2.85H19.57a1.43,1.43,0,0,0,0,2.85Z"/><path class="cls-1" d="M57.28,0a1.81,1.81,0,0,0-.4,0H10A10,10,0,0,0,0,10v4.37a2,2,0,0,0,2,2H48.47a2,2,0,0,0,2-2V10a6,6,0,1,1,12,0V70.21H48.79v4H64.47a2,2,0,0,0,2-2V10A10,10,0,0,0,57.28,0ZM46.48,10v2.38H4V10a6,6,0,0,1,6-6H48.5A10,10,0,0,0,46.48,10Z"/><path class="cls-1" d="M50.51,59.63A.68.68,0,0,1,50.6,59a.61.61,0,0,1,.56-.27,4.66,4.66,0,0,0,2.76-8.49.67.67,0,0,1,0-1.1,4.65,4.65,0,0,0-2.76-8.48.65.65,0,0,1-.56-.28.67.67,0,0,1-.09-.61,4.65,4.65,0,0,0-7.21-5.25.66.66,0,0,1-1-.34,4.65,4.65,0,0,0-8.92,0h0a.66.66,0,0,1-.43.45.64.64,0,0,1-.61-.11,4.65,4.65,0,0,0-7.22,5.25.64.64,0,0,1-.09.61.65.65,0,0,1-.56.28,4.65,4.65,0,0,0-2.76,8.48.67.67,0,0,1,0,1.1,4.66,4.66,0,0,0,2.76,8.49A.62.62,0,0,1,25,59a.65.65,0,0,1,.09.61A4.63,4.63,0,0,0,26.71,65a4.74,4.74,0,0,0,1.51.71v4.54H13.36V17.78h-4V72.2a2,2,0,0,0,2,2H28.22V83a2,2,0,0,0,3.19,1.59l6.38-4.82,6.38,4.82a2.06,2.06,0,0,0,1.2.4,2,2,0,0,0,.89-.21A2,2,0,0,0,47.37,83V65.67a4.79,4.79,0,0,0,1.5-.71A4.63,4.63,0,0,0,50.51,59.63ZM43.38,79,39,75.7a2,2,0,0,0-2.4,0L32.2,79V64.93l.09-.05a.64.64,0,0,1,.61-.11.66.66,0,0,1,.43.45,4.65,4.65,0,0,0,8.92,0,.66.66,0,0,1,1-.34l.08.05V79Zm4-22.33A4.66,4.66,0,0,0,46.76,61a.6.6,0,0,1-.24.76.61.61,0,0,1-.79,0,4.65,4.65,0,0,0-7.3,2.37.67.67,0,0,1-1.28,0,4.65,4.65,0,0,0-3-3.11,4.76,4.76,0,0,0-1.44-.23,4.71,4.71,0,0,0-2.84,1,.61.61,0,0,1-.79,0,.6.6,0,0,1-.24-.76,4.66,4.66,0,0,0-4.51-6.21.6.6,0,0,1-.65-.46.61.61,0,0,1,.26-.75,4.66,4.66,0,0,0,0-7.68.61.61,0,0,1-.26-.75.63.63,0,0,1,.65-.46,4.66,4.66,0,0,0,4.51-6.21.6.6,0,0,1,.24-.76.61.61,0,0,1,.79,0,4.65,4.65,0,0,0,7.3-2.37.62.62,0,0,1,.64-.48.63.63,0,0,1,.64.48,4.65,4.65,0,0,0,7.3,2.37.63.63,0,0,1,.8,0,.61.61,0,0,1,.23.76,4.66,4.66,0,0,0,.62,4.29,4.61,4.61,0,0,0,3.89,1.92.63.63,0,0,1,.65.46.62.62,0,0,1-.25.76,4.64,4.64,0,0,0,0,7.67.67.67,0,0,1-.4,1.21A4.69,4.69,0,0,0,47.38,56.68Z"/><path class="cls-1" d="M37.79,40a9.67,9.67,0,1,0,9.67,9.67A9.68,9.68,0,0,0,37.79,40Zm0,15.35a5.68,5.68,0,1,1,5.68-5.68A5.69,5.69,0,0,1,37.79,55.39Z"/></g></g></svg>