<svg xmlns="http://www.w3.org/2000/svg" viewBox="0 0 46.9 39.83"><defs><style>.cls-1{fill:#a0a0a0;}</style></defs><title>efficiency</title><g id="Layer_2" data-name="Layer 2"><g id="Producto1"><path class="cls-1" d="M3.18,31.38V39a.85.85,0,0,0,.85.85H9.91a.84.84,0,0,0,.84-.85V25.61L6.48,29.88A5.1,5.1,0,0,1,3.18,31.38Z"/><path class="cls-1" d="M13.68,25.51V39a.85.85,0,0,0,.85.85h5.88a.85.85,0,0,0,.85-.85V31.05a5.06,5.06,0,0,1-3.54-1.5Z"/><path class="cls-1" d="M24.18,30.22V39a.85.85,0,0,0,.85.85h5.88a.85.85,0,0,0,.85-.85V22.81L25,29.54A5.44,5.44,0,0,1,24.18,30.22Z"/><path class="cls-1" d="M41.69,12.86l-7,7V39a.84.84,0,0,0,.85.85h5.87a.84.84,0,0,0,.85-.85V13.39c-.19-.16-.34-.31-.44-.4Z"/><path class="cls-1" d="M46.5.45A1.62,1.62,0,0,0,45.26,0H45.1L36.9.39a1.71,1.71,0,0,0-1.26.43,1.55,1.55,0,0,0-.3.44A1.43,1.43,0,0,0,35.78,3l.68.69q.7.72,1.44,1.44L21.36,21.65l-7.43-7.43a2.37,2.37,0,0,0-3.34,0L.69,24.11a2.37,2.37,0,0,0,0,3.34l.45.44a2.34,2.34,0,0,0,3.34,0l7.78-7.77,7.42,7.43a2.39,2.39,0,0,0,3.36,0L41.69,8.89,43.8,11a1.61,1.61,0,0,0,1.13.6,1.43,1.43,0,0,0,.67-.18,1.81,1.81,0,0,0,.41-.3,2,2,0,0,0,.51-1.36c.08-1.77.16-3.54.25-5.33l.13-2.67A1.69,1.69,0,0,0,46.5.45Z"/></g></g></svg>