<svg xmlns="http://www.w3.org/2000/svg" viewBox="0 0 40 40"><defs><style>.cls-1{fill:#a0a0a0;}</style></defs><title>measure-icon</title><g id="Layer_2" data-name="Layer 2"><g id="Producto1"><path class="cls-1" d="M38.83,30.62H35.31v3.52a1.17,1.17,0,0,1-2.34,0V30.62H30.62v3.52a1.17,1.17,0,0,1-2.34,0V30.62H25.94v3.52a1.18,1.18,0,0,1-2.35,0V30.62H21.25v3.52a1.17,1.17,0,0,1-2.34,0V30.62H16.56v3.52a1.17,1.17,0,0,1-2.34,0V30.62H11.88v3.52a1.18,1.18,0,0,1-2.35,0V32.28L1.81,40h37A1.17,1.17,0,0,0,40,38.83v-7A1.17,1.17,0,0,0,38.83,30.62Z"/><path class="cls-1" d="M5.86,4.69H9.38V1.17A1.17,1.17,0,0,0,8.2,0h-7A1.17,1.17,0,0,0,0,1.17v37l7.72-7.72H5.86a1.18,1.18,0,0,1,0-2.35H9.38V25.78H5.86a1.17,1.17,0,0,1,0-2.34H9.38V21.09H5.86a1.17,1.17,0,0,1,0-2.34H9.38V16.41H5.86a1.18,1.18,0,0,1,0-2.35H9.38V11.72H5.86a1.17,1.17,0,0,1,0-2.34H9.38V7H5.86a1.17,1.17,0,0,1,0-2.34Z"/><path class="cls-1" d="M25.14.09a1.2,1.2,0,0,0-.91,0L13,4.81l11.54,5.54.15,0a.7.7,0,0,1,.14,0L36.37,4.81Z"/><path class="cls-1" d="M11.8,6.83V21.09a1.18,1.18,0,0,0,.64,1.05l11.08,5.54V12.46Z"/><path class="cls-1" d="M25.86,12.46V27.68l11.07-5.54a1.17,1.17,0,0,0,.65-1.05V6.83Z"/></g></g></svg>