<svg xmlns="http://www.w3.org/2000/svg" viewBox="0 0 202.73 51.67"><defs><style>.cls-1{fill:#fff;}</style></defs><title>novo-fullw-logo</title><g id="Layer_2" data-name="Layer 2"><g id="TEXT"><path class="cls-1" d="M51.66,40h7v2.5h-4v2h3.73v2.44H54.69v1.93h4v2.55h-7Z"/><path class="cls-1" d="M69,43.81a3.43,3.43,0,0,0-2.63-1.37,3,3,0,0,0-3,3.3,3,3,0,0,0,3,3.17A3.4,3.4,0,0,0,69,47.54v3.4a6.58,6.58,0,0,1-2.95.72,5.7,5.7,0,0,1-5.79-6,5.69,5.69,0,0,1,5.79-6,6.7,6.7,0,0,1,2.95.71Z"/><path class="cls-1" d="M80.65,49.92a6.19,6.19,0,0,1-8.2.38A5.88,5.88,0,0,1,72,41.47a6.17,6.17,0,0,1,8.63,0,5.93,5.93,0,0,1,0,8.45Zm-1.34-4.23a3,3,0,1,0-6,0,3.06,3.06,0,0,0,3,3.35A3.1,3.1,0,0,0,79.31,45.69Z"/><path class="cls-1" d="M85.84,46.25v5.12H84.52V40h2.39a9.12,9.12,0,0,1,1.84.13,2.92,2.92,0,0,1,1,.44,2.57,2.57,0,0,1,.85,1.06,3.58,3.58,0,0,1,.31,1.51,3.5,3.5,0,0,1-.31,1.5,2.6,2.6,0,0,1-.85,1.07,3,3,0,0,1-1,.44,9.17,9.17,0,0,1-1.85.13H85.84Zm0-1.23h.69a4.48,4.48,0,0,0,2.34-.41,1.57,1.57,0,0,0,.61-1.42,1.78,1.78,0,0,0-.62-1.54,4.35,4.35,0,0,0-2.33-.44h-.69Z"/><path class="cls-1" d="M92.62,51.37V40h2.67A7.51,7.51,0,0,1,97,40.1a2.33,2.33,0,0,1,.94.44,2.6,2.6,0,0,1,.79,1.06A3.9,3.9,0,0,1,99,43.08a2.76,2.76,0,0,1-.79,2.13,3.26,3.26,0,0,1-2.29.72h-.24L100,51.37H98.29l-4.16-5.44h-.19v5.44Zm1.32-10.26v3.82h1a3.84,3.84,0,0,0,2.13-.41,1.68,1.68,0,0,0,.54-1.43,1.88,1.88,0,0,0-.56-1.54A3.59,3.59,0,0,0,95,41.11Z"/><path class="cls-1" d="M101.15,51.37V40h6v1.24H102.5v3.27h4.66v1.26H102.5v4.37h4.66v1.26Z"/><path class="cls-1" d="M109.46,51.37V40h6v1.24h-4.66v3.27h4.66v1.26h-4.66v5.63Z"/><path class="cls-1" d="M120.27,39.52l5.19,11.85H124l-1.47-3.5h-4.46l-1.48,3.5H115.1Zm0,3-1.81,4.19h3.63Z"/><path class="cls-1" d="M126.63,51.37V40H129a9.3,9.3,0,0,1,1.85.13,2.62,2.62,0,0,1,1,.44,2.69,2.69,0,0,1,.84,1A3.18,3.18,0,0,1,133,43a2.54,2.54,0,0,1-.43,1.51,2.31,2.31,0,0,1-1.25.85,2.38,2.38,0,0,1,1.59.9,3,3,0,0,1,.59,1.9,3.43,3.43,0,0,1-.25,1.31,3,3,0,0,1-.69,1.06,2.64,2.64,0,0,1-1.19.67,10,10,0,0,1-2.38.2ZM128,41.15V45h1a3.69,3.69,0,0,0,2-.42,1.63,1.63,0,0,0,.59-1.42,1.84,1.84,0,0,0-.55-1.53,3.46,3.46,0,0,0-2.08-.44ZM128,46v4.15h1a9.76,9.76,0,0,0,1.56-.08,1.94,1.94,0,0,0,.77-.3,1.67,1.67,0,0,0,.55-.69,2.42,2.42,0,0,0,.2-1,2.27,2.27,0,0,0-.24-1.08,1.88,1.88,0,0,0-1.33-.95A6.1,6.1,0,0,0,129.4,46H128Z"/><path class="cls-1" d="M135.59,51.37V40h2.68a7.63,7.63,0,0,1,1.68.13,2.33,2.33,0,0,1,.94.44,2.49,2.49,0,0,1,.78,1.06,3.72,3.72,0,0,1,.28,1.48,2.79,2.79,0,0,1-.78,2.13,3.26,3.26,0,0,1-2.29.72h-.24L143,51.37h-1.72l-4.16-5.44h-.19v5.44Zm1.33-10.26v3.82h1a3.84,3.84,0,0,0,2.13-.41,1.68,1.68,0,0,0,.54-1.43,1.88,1.88,0,0,0-.56-1.54,3.61,3.61,0,0,0-2.11-.44Z"/><path class="cls-1" d="M144.14,51.37V40h1.36v11.4Z"/><path class="cls-1" d="M157.5,42.69a5.54,5.54,0,0,0-1.74-1.31,4.91,4.91,0,0,0-2-.42,4.51,4.51,0,0,0-1.76.36,4.59,4.59,0,0,0-1.49,1,4.45,4.45,0,0,0-1,1.52,5,5,0,0,0-.33,1.85,5.16,5.16,0,0,0,.19,1.46,4.11,4.11,0,0,0,.59,1.23,4.72,4.72,0,0,0,1.68,1.5,4.6,4.6,0,0,0,2.16.53,4.51,4.51,0,0,0,2-.46,5.33,5.33,0,0,0,1.7-1.34v1.8a6.4,6.4,0,0,1-1.82.93,6.56,6.56,0,0,1-2,.31,5.78,5.78,0,0,1-1.76-.27,6.15,6.15,0,0,1-1.61-.78,5.79,5.79,0,0,1-2.56-4.9,6.36,6.36,0,0,1,.44-2.39,5.91,5.91,0,0,1,1.34-2,6,6,0,0,1,1.94-1.26,6.37,6.37,0,0,1,2.31-.41,6.11,6.11,0,0,1,1.91.3,6.88,6.88,0,0,1,1.83.93Z"/><path class="cls-1" d="M163.42,39.52l5.19,11.85h-1.48l-1.48-3.5H161.2l-1.48,3.5h-1.47Zm0,3-1.81,4.19h3.62Z"/><path class="cls-1" d="M169.78,51.37V40H172a16.58,16.58,0,0,1,3.42.24A4.71,4.71,0,0,1,178.62,43a7.54,7.54,0,0,1,0,5.4,4.6,4.6,0,0,1-1.49,1.93,4.48,4.48,0,0,1-1.7.82,12.64,12.64,0,0,1-3,.25h-2.68Zm1.37-1.28H172a15.64,15.64,0,0,0,2.91-.18,3,3,0,0,0,1.34-.63,3.65,3.65,0,0,0,1.07-1.5,6.28,6.28,0,0,0,0-4.22,3.67,3.67,0,0,0-1.08-1.5,3.2,3.2,0,0,0-1.36-.65,15.44,15.44,0,0,0-2.89-.19h-.87Z"/><path class="cls-1" d="M193,45.69a5.78,5.78,0,0,1-.46,2.31,5.66,5.66,0,0,1-1.31,1.92,6.16,6.16,0,0,1-4.33,1.75,6.11,6.11,0,0,1-4.3-1.75,5.82,5.82,0,0,1-1.79-4.23,5.84,5.84,0,0,1,.46-2.31,5.62,5.62,0,0,1,1.33-1.93,6.12,6.12,0,0,1,4.3-1.74,6.3,6.3,0,0,1,2.35.45,6.11,6.11,0,0,1,2,1.29,5.61,5.61,0,0,1,1.31,1.93A5.78,5.78,0,0,1,193,45.69Zm-6.1,4.7A4.53,4.53,0,0,0,188.7,50a4.81,4.81,0,0,0,1.52-1,4.73,4.73,0,0,0,1-5.14,4.58,4.58,0,0,0-1-1.53,4.84,4.84,0,0,0-1.52-1,4.68,4.68,0,0,0-1.79-.35,4.53,4.53,0,0,0-3.3,1.37,4.7,4.7,0,0,0-1,1.54,4.78,4.78,0,0,0-.35,1.81,4.47,4.47,0,0,0,.35,1.79,4.77,4.77,0,0,0,1,1.53,4.71,4.71,0,0,0,1.52,1A4.49,4.49,0,0,0,186.91,50.39Z"/><path class="cls-1" d="M199.37,45a4,4,0,0,1,1.68,1.26,3.13,3.13,0,0,1,.56,1.86,3.33,3.33,0,0,1-1,2.53,4.08,4.08,0,0,1-4.91.28,3.37,3.37,0,0,1-1.23-2l1.23-.61a3.09,3.09,0,0,0,.82,1.57,2,2,0,0,0,1.44.53,2.33,2.33,0,0,0,1.65-.58,2,2,0,0,0,.63-1.53,2.13,2.13,0,0,0-.44-1.33,3.21,3.21,0,0,0-1.33-1l-1.38-.6a3.87,3.87,0,0,1-1.7-1.22,2.91,2.91,0,0,1-.55-1.79,2.57,2.57,0,0,1,.9-2,3.35,3.35,0,0,1,2.3-.79,3.48,3.48,0,0,1,1.78.43A3,3,0,0,1,201,41.42l-1.13.71a2.88,2.88,0,0,0-.85-1,1.85,1.85,0,0,0-1.08-.32,1.74,1.74,0,0,0-1.25.46,1.71,1.71,0,0,0-.11,2.25,3.25,3.25,0,0,0,1.16.78Z"/><path class="cls-1" d="M52.05.77h9.09L74.2,18.58a51.24,51.24,0,0,1,3.15,6.09,57.22,57.22,0,0,1-.54-6.82V.77h9V35.36h-9L63.75,17.51a48.35,48.35,0,0,1-3.14-6,56.79,56.79,0,0,1,.53,6.82V35.36H52.05Z"/><path class="cls-1" d="M123.4,31a18.84,18.84,0,0,1-13.11,5.32,19.06,19.06,0,0,1-11.76-4.16,17.54,17.54,0,0,1-6.72-14A17.53,17.53,0,0,1,97.23,5.32a18.75,18.75,0,0,1,26.17,0,17.61,17.61,0,0,1,5.37,12.82A17.62,17.62,0,0,1,123.4,31Zm-4.07-12.82c0-5.61-3.77-10.16-9-10.16s-9.05,4.5-9.05,10.16,3.53,10.16,9.05,10.16C115.66,28.3,119.33,23.8,119.33,18.14Z"/><path class="cls-1" d="M129.15.77h10l6.92,19.35c.15.39.53,1.94,1.16,4.65.63-2.71,1.07-4.26,1.21-4.65L155.32.77h10L150.82,35.36h-7.16Z"/><path class="cls-1" d="M197.36,31a18.82,18.82,0,0,1-13.11,5.32,19.06,19.06,0,0,1-11.76-4.16,17.54,17.54,0,0,1-6.72-14,17.57,17.57,0,0,1,5.42-12.82,18.75,18.75,0,0,1,26.17,0,17.61,17.61,0,0,1,5.37,12.82A17.62,17.62,0,0,1,197.36,31ZM193.3,18.14c0-5.61-3.78-10.16-9.05-10.16s-9.05,4.5-9.05,10.16,3.53,10.16,9.05,10.16C189.62,28.3,193.3,23.8,193.3,18.14Z"/><path class="cls-1" d="M.13,31.64V50.11H3.07V36.62A22.6,22.6,0,0,1,.13,31.64Z"/><path class="cls-1" d="M31.79,43.58.12,11.16,0,21.58H0A21.62,21.62,0,0,0,21.37,43.45Z"/><path class="cls-1" d="M0,.11,31.66,32.52l.12-10.41h0A21.62,21.62,0,0,0,10.42.23Z"/><polygon class="cls-1" points="39.09 3.72 39.09 44.21 0.13 3.1 0.13 7.11 3.07 10.24 3.07 10.24 23.32 31.75 23.55 32 23.55 32 42.03 51.65 42.03 3.72 39.09 3.72"/></g></g></svg>