<svg xmlns="http://www.w3.org/2000/svg" viewBox="0 0 23.92 23.87"><defs><style>.cls-1{fill:#4d4d4d;}</style></defs><title>phone-icon</title><g id="Layer_2" data-name="Layer 2"><g id="Layer_1-2" data-name="Layer 1"><path class="cls-1" d="M23.39,18.88l-3.7-3.7a1.91,1.91,0,0,0-2.71.06L15.12,17.1l-.37-.21a18.21,18.21,0,0,1-4.48-3.24A18.21,18.21,0,0,1,7,9.17l-.2-.36L8.08,7.56,8.69,7a1.94,1.94,0,0,0,.05-2.72L5,.54a1.91,1.91,0,0,0-2.71,0l-1,1,0,0A5.81,5.81,0,0,0,.46,3.18,5.91,5.91,0,0,0,.08,4.71c-.49,4.05,1.36,7.74,6.37,12.76C13.39,24.4,19,23.88,19.21,23.85a6,6,0,0,0,1.54-.39,5.72,5.72,0,0,0,1.51-.85l0,0,1.06-1A1.94,1.94,0,0,0,23.39,18.88Z"/></g></g></svg>