<svg xmlns="http://www.w3.org/2000/svg" viewBox="0 0 314.06 97.4"><defs><style>.cls-1{fill:#4d4d4d;}.cls-1,.cls-2{fill-rule:evenodd;}.cls-2{fill:#98bb3e;}</style></defs><title>reciclados-bg-logo</title><g id="Layer_2" data-name="Layer 2"><g id="Layer_1-2" data-name="Layer 1"><path class="cls-1" d="M176.17,22.58h7.88a2.18,2.18,0,0,1,2.18,2.18V42.34a2.18,2.18,0,0,1-2.18,2.18h-7.88A2.15,2.15,0,0,1,174,42.34V24.76a2.22,2.22,0,0,1,2.18-2.18m-121-4h14.6a.83.83,0,0,1,.83.83v2.29a.82.82,0,0,1-.83.83h-13a2.22,2.22,0,0,0-2.18,2.18V42.36a2.22,2.22,0,0,0,2.18,2.18h13a.82.82,0,0,1,.83.83v2.29a.84.84,0,0,1-.83.84H55.17a5.59,5.59,0,0,1-5.57-5.57V24.12A5.58,5.58,0,0,1,55.17,18.56Zm17.45.87V47.62a.85.85,0,0,0,.85.83H76.8a.84.84,0,0,0,.83-.84V19.44a.84.84,0,0,0-.83-.84H73.47A.84.84,0,0,0,72.62,19.43Zm12.47-.87h14.6a.83.83,0,0,1,.83.83v2.29a.81.81,0,0,1-.82.83h-13a2.22,2.22,0,0,0-2.18,2.18V42.36a2.22,2.22,0,0,0,2.18,2.18h13a.81.81,0,0,1,.82.83v2.29a.84.84,0,0,1-.83.84H85.09a5.59,5.59,0,0,1-5.57-5.57V24.12A5.58,5.58,0,0,1,85.09,18.56Zm22.27.88v22.9a2.18,2.18,0,0,0,2.2,2.17h8.65a.82.82,0,0,1,.83.84v2.29a.83.83,0,0,1-.83.83H107.92a5.7,5.7,0,0,1-5.56-5.56V19.45a.84.84,0,0,1,.83-.84h3.33A.83.83,0,0,1,107.36,19.44Zm30.82,17.18v5.72A2.16,2.16,0,0,1,136,44.52h-7.88a2.18,2.18,0,0,1-2.18-2.18V36.59a2.18,2.18,0,0,1,2.17-2.17H136A2.16,2.16,0,0,1,138.18,36.62Zm-.56-18H123a.83.83,0,0,0-.83.83v2.29a.82.82,0,0,0,.83.84h13a2.22,2.22,0,0,1,2.18,2.17v4.6a1.1,1.1,0,0,1-1.11,1.11H126.5A5.61,5.61,0,0,0,120.94,36v6.89a5.57,5.57,0,0,0,5.56,5.56h11.12a5.58,5.58,0,0,0,5.57-5.56V24.18A5.58,5.58,0,0,0,137.62,18.62Zm12.46,25.89V22.58h9.83a2.22,2.22,0,0,1,2.18,2.17V42.33a2.22,2.22,0,0,1-2.18,2.18Zm-5-25.06V47.64a.85.85,0,0,0,.85.83h15.61a5.58,5.58,0,0,0,5.56-5.57V24.18a5.57,5.57,0,0,0-5.56-5.56H145.92A.84.84,0,0,0,145.07,19.45Zm53.62-.83h14.17a.84.84,0,0,1,.83.83v2.3a.83.83,0,0,1-.83.83H200.32a2.22,2.22,0,0,0-2.18,2.18v4.68a2.22,2.22,0,0,0,2.18,2.18h8.25a5.58,5.58,0,0,1,5.56,5.56v5.74a5.58,5.58,0,0,1-5.56,5.56H194.4a.84.84,0,0,1-.83-.83v-2.3a.83.83,0,0,1,.83-.83h12.54a2.22,2.22,0,0,0,2.18-2.18V37.76a2.22,2.22,0,0,0-2.18-2.18h-8.25A5.58,5.58,0,0,1,193.13,30V24.18A5.57,5.57,0,0,1,198.69,18.62ZM30.88,48.44H46.74a.85.85,0,0,0,.83-.84V45.31a.82.82,0,0,0-.83-.83H32.51a2.22,2.22,0,0,1-2.18-2.18V24.71a2.16,2.16,0,0,1,2.18-2.18h7.88a2.18,2.18,0,0,1,2.18,2.18v4.65a2.17,2.17,0,0,1-2.18,2.16h-5.3a.85.85,0,0,0-.85.85v2.27a.84.84,0,0,0,.84.84H42a5.6,5.6,0,0,0,5.56-5.56V24.13A5.57,5.57,0,0,0,42,18.57H30.88a5.57,5.57,0,0,0-5.56,5.56V42.87A5.58,5.58,0,0,0,30.88,48.44ZM14.45,22.53H7.25a2.22,2.22,0,0,0-2.18,2.18v5.74a1.12,1.12,0,0,0,1.12,1.12h9a2.22,2.22,0,0,0,2.18-2.18V24.71a2.22,2.22,0,0,0-2.18-2.18Zm-8.82-4h11.2a5.57,5.57,0,0,1,5.56,5.56V30A5.57,5.57,0,0,1,18,35.41l7.4,12.68a.18.18,0,0,1,.06.14.21.21,0,0,1-.21.21H20.61a1.7,1.7,0,0,1-1.2-.5L13,36.62a2.24,2.24,0,0,0-1.89-1.09h-5a1.11,1.11,0,0,0-1.12,1.12V48.44h-5V24.13A5.57,5.57,0,0,1,5.63,18.57Zm146,49.63v5.14a1.93,1.93,0,0,1-2,2h-7.08a2,2,0,0,1-2-2V68.18a2,2,0,0,1,2-2h7.07A1.93,1.93,0,0,1,151.58,68.2ZM0,52.78V78.09a.76.76,0,0,0,.76.75h3a.75.75,0,0,0,.74-.75V52.79A.75.75,0,0,0,3.75,52h-3A.75.75,0,0,0,0,52.78ZM32.29,75.29V55.6h8.82a2,2,0,0,1,2,2V73.34a2,2,0,0,1-2,2ZM27.8,52.8V78.1a.75.75,0,0,0,.75.75h14a5,5,0,0,0,5-5V57a5,5,0,0,0-5-5h-14A.75.75,0,0,0,27.8,52.8ZM92.21,52h18.48a.76.76,0,0,1,.75.75v2.06a.75.75,0,0,1-.75.74h-7v22.5a.75.75,0,0,1-.75.75h-3a.75.75,0,0,1-.75-.75V55.59h-7a.74.74,0,0,1-.74-.74V52.79A.75.75,0,0,1,92.21,52Zm37.71.74V78.09a.75.75,0,0,0,.75.75h3a.75.75,0,0,0,.74-.75V52.79a.75.75,0,0,0-.74-.75h-3A.74.74,0,0,0,129.92,52.78ZM117.63,78.1V57.54a2,2,0,0,1,2-1.95h7.76a.73.73,0,0,0,.75-.75V52.78a.75.75,0,0,0-.75-.74h-9.23a5.13,5.13,0,0,0-5,5V78.09a.76.76,0,0,0,.75.76h3A.76.76,0,0,0,117.63,78.1Zm44.62-25.32V73.34a2,2,0,0,0,2,2H172a.74.74,0,0,1,.75.76v2a.76.76,0,0,1-.75.75h-9.24a5.12,5.12,0,0,1-5-5V52.79a.75.75,0,0,1,.74-.75h3A.75.75,0,0,1,162.25,52.78ZM200.3,52H213a.76.76,0,0,1,.75.75v2.06a.74.74,0,0,1-.75.74H201.76a2,2,0,0,0-2,2v4.2a2,2,0,0,0,2,2h7.41a5,5,0,0,1,5,5v5.15a5,5,0,0,1-5,5H196.45a.75.75,0,0,1-.74-.75V76a.73.73,0,0,1,.74-.75h11.26a2,2,0,0,0,2-2V69.22a2,2,0,0,0-2-2H200.3a5,5,0,0,1-5-5V57A5,5,0,0,1,200.3,52ZM26.11,57a5,5,0,0,0-5-5h-10a5,5,0,0,0-5,5V78.09a.76.76,0,0,0,.76.75h3a.75.75,0,0,0,.74-.75V57.55a1.94,1.94,0,0,1,2-2h7.07a2,2,0,0,1,2,2V78.09a.76.76,0,0,0,.76.75h3a.76.76,0,0,0,.75-.75Zm49.81-5H88.63a.76.76,0,0,1,.75.75v2.06a.74.74,0,0,1-.75.74H77.37a2,2,0,0,0-2,2v4.2a2,2,0,0,0,2,2h7.41a5,5,0,0,1,5,5v5.15a5,5,0,0,1-5,5H72.07a.76.76,0,0,1-.75-.75V76a.74.74,0,0,1,.74-.75H83.32a2,2,0,0,0,2-2V69.22a2,2,0,0,0-2-2h-7.4a5,5,0,0,1-5-5V57A5,5,0,0,1,75.92,52Zm-6.69,21.8a5,5,0,0,1-5,5h-10a5,5,0,0,1-5-5V52.78A.75.75,0,0,1,50,52h3a.75.75,0,0,1,.75.75V73.33a1.93,1.93,0,0,0,2,2h7.07a2,2,0,0,0,2-2V52.78a.75.75,0,0,1,.75-.74h3a.75.75,0,0,1,.75.75Zm109.4,5h14.23a.76.76,0,0,0,.75-.75V76a.74.74,0,0,0-.74-.75H180.09a2,2,0,0,1-2-2V57.55a1.94,1.94,0,0,1,2-2h7.07a2,2,0,0,1,2,2v4.17a2,2,0,0,1-2,2h-2.78a.76.76,0,0,0-.77.76v2a.76.76,0,0,0,.75.75h4.25a5,5,0,0,0,5-5V57a5,5,0,0,0-5-5h-10a5,5,0,0,0-5,5V73.85A5,5,0,0,0,178.63,78.85ZM151.09,52H138a.75.75,0,0,0-.74.75v2.06a.73.73,0,0,0,.74.74h11.66a2,2,0,0,1,2,2v4.13a1,1,0,0,1-1,1H141.1a5,5,0,0,0-5,5v6.18a5,5,0,0,0,5,5h10a5,5,0,0,0,5-5V57A5,5,0,0,0,151.09,52Zm23.46-33.42h11.13a5.58,5.58,0,0,1,5.56,5.56V42.92a5.58,5.58,0,0,1-5.56,5.56H174.55A5.57,5.57,0,0,1,169,42.92V24.18A5.57,5.57,0,0,1,174.55,18.62Z"/><path class="cls-2" d="M250,62V35.43a.89.89,0,0,1,1.33-.75l23,13.25a.86.86,0,0,1,0,1.51l-23,13.27A.88.88,0,0,1,250,62m63.46-11a4.74,4.74,0,0,1-1.71,1.69l-8.2,4.73a1.77,1.77,0,0,1-1.7,0l-.46-.26L260.84,33.68a.32.32,0,0,1-.12-.44.31.31,0,0,1,.29-.16h7a1.75,1.75,0,0,0,1.75-1.75v-10a.56.56,0,0,1,.06-.21.43.43,0,0,1,.6-.16l41.33,23.86A4.54,4.54,0,0,1,313.45,51ZM233,0a4.79,4.79,0,0,1,2.31.63l8.2,4.73a1.79,1.79,0,0,1,.83,1.5V54.2a.32.32,0,0,1-.32.32.34.34,0,0,1-.29-.17l-3.52-6.09a1.74,1.74,0,0,0-2.39-.64l-8.7,5a.55.55,0,0,1-.22.06.43.43,0,0,1-.43-.44V4.53A4.53,4.53,0,0,1,233,0Zm60.79,59.7a.43.43,0,0,0-.16-.6L282,52.36a.87.87,0,0,0-1.2.33l-5.75,10a1.74,1.74,0,0,0,.63,2.4l3.63,2.07a1.74,1.74,0,0,0,1.75,0l12.62-7.28A.43.43,0,0,0,293.78,59.7ZM231.3,73.79a.43.43,0,0,0,.59.16l11.67-6.74a.86.86,0,0,0,.32-1.2l-5.76-10a1.74,1.74,0,0,0-2.39-.65l-3.61,2.1a1.76,1.76,0,0,0-.88,1.52V73.58A.38.38,0,0,0,231.3,73.79Zm-2.25,21.34a4.82,4.82,0,0,1-.61-2.32V83.34a1.77,1.77,0,0,1,.88-1.46l.46-.27,40.55-23.4a.32.32,0,0,1,.43.45l-3.51,6.1a1.74,1.74,0,0,0,.63,2.39l8.71,5a.43.43,0,0,1,0,.75L235.25,96.79A4.53,4.53,0,0,1,229.05,95.13Zm21.37-82.51a.44.44,0,0,0-.44.44V26.54a.87.87,0,0,0,.88.87h11.52a1.75,1.75,0,0,0,1.76-1.75l0-4.18a1.74,1.74,0,0,0-.87-1.51l-12.62-7.29A.4.4,0,0,0,250.42,12.62Z"/></g></g></svg>