<svg xmlns="http://www.w3.org/2000/svg" viewBox="0 0 65.75 86.86"><defs><style>.cls-1{fill:#fff;stroke:#fff;stroke-miterlimit:10;stroke-width:1.4px;}</style></defs><title>strategic-locat-icon</title><g id="Layer_2" data-name="Layer 2"><g id="Layer_1-2" data-name="Layer 1"><path class="cls-1" d="M32.88,45.91A17.52,17.52,0,1,0,15.29,28.39,17.56,17.56,0,0,0,32.88,45.91Zm0-32a14.51,14.51,0,1,1-14.57,14.5A14.56,14.56,0,0,1,32.88,13.89Z"/><path class="cls-1" d="M32.88.7A32.11,32.11,0,0,0,.7,32.73,31.75,31.75,0,0,0,6.61,51.16L32.87,85.7l26.3-34.55a31.77,31.77,0,0,0,5.88-18.42A32.1,32.1,0,0,0,32.88.7ZM57.49,48.27l-.14.19a29.29,29.29,0,0,1-2.49,3.29l-7,9.33,0,0-15,19.67-15-19.67h0l-7.3-9.64c-.06-.07-.14-.12-.19-.19l-.74-1c-.12-.16-.21-.35-.33-.51l-.61-.94a28.67,28.67,0,0,1-5-16.1A29.16,29.16,0,1,1,57.45,48.27Z"/></g></g></svg>