<svg xmlns="http://www.w3.org/2000/svg" viewBox="0 0 42.62 40.17"><defs><style>.cls-1{fill:#a0a0a0;}</style></defs><title>weight-icon</title><g id="Layer_2" data-name="Layer 2"><g id="Producto1"><path class="cls-1" d="M35.26,11.75a2.8,2.8,0,0,0-2.79-2.54H26.72a6.12,6.12,0,0,0,.8-3,6.18,6.18,0,0,0-12.36,0,6.12,6.12,0,0,0,.8,3H10a2.8,2.8,0,0,0-2.79,2.55L0,37.15v.21a2.81,2.81,0,0,0,2.8,2.81h37a2.81,2.81,0,0,0,2.8-2.81v-.22ZM19.94,31.49a.91.91,0,0,1-.8-.44L15.8,26l-1,1.21v3.48c0,.48-.58.73-1.15.73s-1.16-.25-1.16-.73V19.12c0-.5.57-.71,1.16-.71s1.15.21,1.15.71V24l3.84-5.22a.74.74,0,0,1,.64-.34,1.44,1.44,0,0,1,1.34,1.19.66.66,0,0,1-.15.44l-3.18,4,3.88,5.9a.66.66,0,0,1,.12.41A1.41,1.41,0,0,1,19.94,31.49Zm10.35-4c0,3-1.83,4.07-4.18,4.07S22,30.41,22,27.44v-5c0-3,1.83-4.07,4.09-4.07,2.45,0,4.25,1.28,4.25,3.41,0,.89-.39,1.1-1.16,1.1-.62,0-1.13-.17-1.15-.73a1.64,1.64,0,0,0-1.85-1.76c-1.19,0-1.87.66-1.87,2.05v5c0,1.39.68,2,1.85,2s1.87-.65,1.87-2V26.39H26.54c-.46,0-.71-.44-.71-.91s.25-.9.71-.9h3a.71.71,0,0,1,.73.74v2.12Z"/></g></g></svg>